<?xml version="1.0" encoding="UTF-8"?><svg id="_レイヤー_2" xmlns="http://www.w3.org/2000/svg" viewBox="0 0 283.46 37.8"><g id="logo"><polygon points="18.92 27.84 7.6 0 7.56 .02 7.56 0 0 0 0 37.8 7.56 37.8 7.56 19.97 14.81 37.8 14.99 37.8 22.85 37.8 23.04 37.8 30.24 20.08 30.24 37.8 37.8 37.8 37.8 0 30.24 0 18.92 27.84"/><path d="m71.1,0h-13.7l-.57,1.78-11.48,36.01h7.93l2.41-7.56h17.11l2.41,7.56h7.93L71.67,1.78l-.57-1.78Zm-13,22.68l4.8-15.06h2.69l4.8,15.06h-12.29Z"/><polygon points="136.06 0 136.06 7.56 136.06 15.12 136.06 22.68 136.06 30.24 136.06 37.8 143.62 37.8 166.3 37.8 166.3 30.24 143.62 30.24 143.62 22.68 158.74 22.68 158.74 15.12 143.62 15.12 143.62 7.56 166.3 7.56 166.3 0 143.62 0 136.06 0"/><rect x="260.79" y="30.24" width="7.56" height="7.56"/><rect x="275.91" y="30.24" width="7.56" height="7.56"/><rect x="245.67" y="30.24" width="7.56" height="7.56"/><rect x="185.2" width="7.56" height="7.56"/><rect x="185.2" y="15.12" width="7.56" height="22.68"/><path d="m110.27,0h-19.56v37.8h19.56c5.33,0,10.33-2.24,13.72-6.14,3-3.44,4.52-7.74,4.52-12.76s-1.52-9.32-4.52-12.76c-3.39-3.9-8.39-6.14-13.72-6.14Zm8.02,26.7c-1.96,2.25-4.88,3.54-8.02,3.54h-12V7.56h3.78s8.22,0,8.22,0c3.14,0,6.06,1.29,8.02,3.54,1.76,2.03,2.66,4.65,2.66,7.8s-.89,5.77-2.66,7.8Z"/><path d="m231.97,4.51c-3.44-3-7.74-4.51-12.76-4.51-4.35,0-8.16,1.14-11.34,3.4V0h-7.56v37.8h7.56v-19.56c0-3.14,1.29-6.06,3.54-8.02,2.03-1.76,4.65-2.66,7.8-2.66s5.77.89,7.8,2.66c2.25,1.96,3.54,4.88,3.54,8.02v19.56h7.56v-19.56c0-5.33-2.24-10.33-6.14-13.72Z"/></g></svg>