<?xml version="1.0" encoding="UTF-8"?><svg id="_レイヤー_2" xmlns="http://www.w3.org/2000/svg" viewBox="0 0 141.73 71.18"><defs><style>.cls-1{fill:#fff;}</style></defs><g id="logo"><path class="cls-1" d="m85.67,6.92v28.36h-29.61V12.84l29.61-5.92m5.67-6.92l-40.94,8.19v32.76h40.94V0h0Z"/><path class="cls-1" d="m20.47,6.34l14.8,7.4v21.54H5.67V13.74l14.8-7.4m0-6.34L0,10.24v30.71h40.94V10.24L20.47,0h0Z"/><path class="cls-1" d="m113.54,6.5l22.52,10.73v18.05h-29.61V11.22l7.08-4.72m-.47-6.5l-12.28,8.19v32.76h40.94V13.65S113.07,0,113.07,0h0Z"/><polygon class="cls-1" points="9.46 66.21 3.8 52.28 3.78 52.29 3.78 52.28 0 52.28 0 71.18 3.78 71.18 3.78 62.27 7.4 71.18 7.5 71.18 11.42 71.18 11.52 71.18 15.12 62.32 15.12 71.18 18.9 71.18 18.9 52.28 15.12 52.28 9.46 66.21"/><path class="cls-1" d="m35.55,52.28h-6.85l-.28.89-5.74,18.01h3.97l1.2-3.78h8.55l1.2,3.78h3.97l-5.74-18.01-.28-.89Zm-6.5,11.34l2.4-7.53h1.35l2.4,7.53h-6.15Z"/><polygon class="cls-1" points="68.03 52.28 68.03 56.06 68.03 59.84 68.03 63.62 68.03 67.4 68.03 71.18 71.81 71.18 83.15 71.18 83.15 67.4 71.81 67.4 71.81 63.62 79.37 63.62 79.37 59.84 71.81 59.84 71.81 56.06 83.15 56.06 83.15 52.28 71.81 52.28 68.03 52.28"/><rect class="cls-1" x="130.39" y="67.4" width="3.78" height="3.78"/><rect class="cls-1" x="137.95" y="67.4" width="3.78" height="3.78"/><rect class="cls-1" x="122.83" y="67.4" width="3.78" height="3.78"/><rect class="cls-1" x="92.6" y="52.28" width="3.78" height="3.78"/><rect class="cls-1" x="92.6" y="59.84" width="3.78" height="11.34"/><path class="cls-1" d="m55.13,52.28h-9.78v18.9h9.78c2.66,0,5.16-1.12,6.86-3.07,1.5-1.72,2.26-3.87,2.26-6.38s-.76-4.66-2.26-6.38c-1.7-1.95-4.2-3.07-6.86-3.07Zm4.01,13.35c-.98,1.12-2.44,1.77-4.01,1.77h-6v-11.34h1.89s4.11,0,4.11,0c1.57,0,3.03.64,4.01,1.77.88,1.01,1.33,2.33,1.33,3.9s-.45,2.89-1.33,3.9Z"/><path class="cls-1" d="m115.99,54.54c-1.72-1.5-3.87-2.26-6.38-2.26-2.18,0-4.08.57-5.67,1.7v-1.7h-3.78v18.9h3.78v-9.78c0-1.57.64-3.03,1.77-4.01,1.01-.88,2.33-1.33,3.9-1.33s2.89.45,3.9,1.33c1.12.98,1.77,2.44,1.77,4.01v9.78h3.78v-9.78c0-2.66-1.12-5.16-3.07-6.86Z"/></g></svg>